<?xml version="1.0" encoding="UTF-8"?>
<svg width="171px" height="61px" viewBox="0 0 171 61" version="1.1" xmlns="http://www.w3.org/2000/svg" xmlns:xlink="http://www.w3.org/1999/xlink">
    <title>logo</title>
    <g id="Web" stroke="none" stroke-width="1" fill="none" fill-rule="evenodd">
        <g id="NewMenu_00" transform="translate(-1494.000000, -30.000000)" fill="#1A1919">
            <g id="logo" transform="translate(1494.000000, 30.000000)">
                <g id="arabic" transform="translate(75.000111, 9.199667)">
                    <path d="M8.45407407,15.8125185 C7.52259259,15.9747407 6.40481481,16.0462222 5.21777778,16.0462222 C3.00444444,16.0462222 2.07296296,14.9965926 2.07296296,12.7380741 L2.07296296,6.23992593 L8.8817842e-16,6.23992593 L8.8817842e-16,12.8780741 C8.8817842e-16,16.3262222 1.60740741,18.0243704 5.12407407,18.0243704 C6.8,18.0243704 9.10703704,17.8402963 10.5507407,17.4665926 L10.5507407,17.024 L10.5507407,6.23992593 L8.45407407,6.23992593 L8.45407407,15.8125185 Z" id="Fill-23"></path>
                    <polygon id="Fill-25" points="4.44837037 2.5362963 6.568 2.5362963 6.568 4.61186644e-13 4.44837037 4.61186644e-13"></polygon>
                    <path d="M18.9597407,8.38303704 L18.9597407,12.9248889 C18.5641852,13.0400741 18.191963,13.1337778 17.726037,13.1337778 C16.6075185,13.1337778 15.6530741,12.4574815 15.6530741,10.713037 C15.6530741,8.94340741 16.7478889,8.22081481 17.8427037,8.22081481 C18.3086296,8.22081481 18.5875185,8.2897037 18.9597407,8.38303704 M13.5801111,10.7348889 C13.5801111,13.7408148 15.3508519,15.1611852 17.6793704,15.1611852 C18.1452963,15.1611852 18.5641852,15.1145185 18.9364074,15.0211852 C18.7741852,16.6971111 17.8193704,17.6067407 15.8397407,17.6067407 C15.606037,17.6067407 14.6045556,17.5352593 14.3256667,17.5352593 L15.3041852,19.5848889 L15.9552963,19.5848889 C19.4256667,19.5848889 21.056037,17.8404444 21.056037,14.4856296 L21.056037,6.77562963 C19.7527037,6.40488889 18.9830741,6.2397037 17.796037,6.2397037 C15.5830741,6.2397037 13.5801111,7.66044444 13.5801111,10.7348889" id="Fill-27"></path>
                    <path d="M92.7571111,10.4327407 C92.7571111,12.2268148 92.0826667,13.1334815 90.2419259,13.1334815 L85.8304444,13.1334815 L85.8304444,0.022 L83.7341481,0.022 L83.7341481,13.1334815 L83.7341481,15.1612593 L85.8304444,15.1612593 L90.4519259,15.1612593 C93.4567407,15.1612593 94.8534074,13.6694074 94.8534074,10.8064444 L94.8534074,6.23977778 L92.7571111,6.23977778 L92.7571111,10.4327407 Z" id="Fill-28"></path>
                    <polygon id="Fill-29" points="92.7339259 2.56074074 94.8535556 2.56074074 94.8535556 0.0222222222 92.7339259 0.0222222222"></polygon>
                    <path d="M78.7951481,13.1336296 L53.967,13.1336296 C53.2225556,13.1336296 52.4295926,12.9936296 51.5681111,12.551037 C51.7318148,11.9932593 51.8255185,11.4795556 51.8255185,10.8062222 L51.8255185,6.23992593 L49.7055185,6.23992593 L49.7055185,10.4328889 C49.7055185,12.226963 49.1929259,13.1336296 47.7255185,13.1336296 C47.0032963,13.1336296 46.1884815,13.0180741 45.3503333,12.5758519 C45.5358889,12.1088148 45.6062593,11.4795556 45.6062593,10.8062222 L45.6062593,6.23992593 L43.5095926,6.23992593 L43.5095926,10.4328889 C43.5095926,12.226963 43.0203333,13.1336296 41.5532963,13.1336296 C40.7155185,13.1336296 39.6436667,13.0180741 38.7825556,12.8314074 L38.7825556,6.23992593 L36.6862593,6.23992593 L36.6862593,16.0462222 L33.4492222,16.0462222 C31.2362593,16.0462222 30.3044074,14.9965926 30.3044074,12.7380741 L30.3044074,6.23992593 L28.2318148,6.23992593 L28.2318148,12.8780741 C28.2318148,16.3262222 29.8388519,18.0243704 33.3555185,18.0243704 L38.7825556,18.0243704 L38.7825556,14.8591852 C39.807,15.0432593 40.9018148,15.1614074 41.6703333,15.1614074 C42.6947778,15.1614074 43.6029259,14.8591852 44.2792222,14.2988148 C45.5129259,14.9499259 46.6544074,15.1614074 47.8429259,15.1614074 C48.9829259,15.1614074 49.8910741,14.881037 50.5436667,14.2988148 C51.7318148,14.9277037 52.9421852,15.1614074 54.0607037,15.1614074 L78.7951481,15.1614074 L79.169963,15.1614074 L80.8914444,15.1614074 L80.8914444,6.23992593 L78.7951481,6.23992593 L78.7951481,13.1336296 Z" id="Fill-30"></path>
                    <polygon id="Fill-31" points="78.2594815 20.1455556 80.3794815 20.1455556 80.3794815 17.6066667 78.2594815 17.6066667"></polygon>
                    <polygon id="Fill-32" points="74.4413333 20.1455556 76.5613333 20.1455556 76.5613333 17.6066667 74.4413333 17.6066667"></polygon>
                </g>
                <g id="english" transform="translate(75.000000, 37.052148)">
                    <path d="M28.0574074,2.14822222 C29.2744444,2.14822222 30.4537037,2.56414815 31.3777778,3.31785185 L32.7362963,1.6522963 C31.4292593,0.586740741 29.7677778,7.40740742e-05 28.0574074,7.40740742e-05 C24.0462963,7.40740742e-05 20.7837037,3.16637037 20.7837037,7.05711111 C20.7837037,10.9482222 24.0462963,14.1141481 28.0574074,14.1141481 C29.7018519,14.1141481 31.312963,13.5667407 32.5951852,12.5726667 L31.2785185,10.8748889 C30.3581481,11.5882222 29.2440741,11.966 28.0574074,11.966 C25.2318519,11.966 22.9318519,9.76340741 22.9318519,7.05711111 C22.9318519,4.35081481 25.2318519,2.14822222 28.0574074,2.14822222" id="Fill-33"></path>
                    <polygon id="Fill-34" points="15.3781111 14.0167778 17.5262593 14.0167778 17.5262593 0.0971481481 15.3781111 0.0971481481"></polygon>
                    <polygon id="Fill-35" points="9.97222222 10.6725185 2.39555556 0.096962963 -8.8817842e-16 0.096962963 -8.8817842e-16 14.016963 2.14814815 14.016963 2.14814815 3.44177778 9.72407407 14.0162222 12.1203704 14.0162222 12.1203704 0.0973333333 9.97222222 0.0973333333"></polygon>
                    <polygon id="Fill-36" points="81.0536667 10.6714444 73.4788519 0.097 71.0825556 0.097 71.0825556 14.017 73.2307037 14.017 73.2307037 3.44255556 80.8051481 14.0162593 83.2021852 14.0162593 83.2021852 0.0973703704 81.0536667 0.0973703704"></polygon>
                    <polygon id="Fill-37" points="36.388963 14.1141852 44.9111852 14.1141852 44.9111852 11.966037 38.5371111 11.966037 38.5371111 7.82603704 43.7711852 7.82603704 43.7711852 5.67788889 38.5371111 5.67788889 38.5371111 2.14825926 44.9111852 2.14825926 44.9111852 0.000111111111 36.388963 0.000111111111"></polygon>
                    <polygon id="Fill-38" points="94.981963 2.14822222 94.981963 7.40740742e-05 86.4593704 7.40740742e-05 86.4593704 14.1141481 94.981963 14.1141481 94.981963 11.966 88.6078889 11.966 88.6078889 7.826 93.841963 7.826 93.841963 5.67785185 88.6078889 5.67785185 88.6078889 2.14822222"></polygon>
                    <path d="M60.7679259,11.9659259 C58.0616296,11.9659259 55.859037,9.76333333 55.859037,7.05703704 C55.859037,4.35074074 58.0616296,2.14814815 60.7679259,2.14814815 C63.4742222,2.14814815 65.6768148,4.35074074 65.6768148,7.05703704 C65.6768148,9.76333333 63.4742222,11.9659259 60.7679259,11.9659259 M60.7679259,-1.08357767e-13 C56.8768148,-1.08357767e-13 53.7108889,3.1662963 53.7108889,7.05703704 C53.7108889,10.9481481 56.8768148,14.1140741 60.7679259,14.1140741 C64.659037,14.1140741 67.824963,10.9481481 67.824963,7.05703704 C67.824963,3.1662963 64.659037,-1.08357767e-13 60.7679259,-1.08357767e-13" id="Fill-39"></path>
                </g>
                <path d="M30.4868148,58.4125926 C14.9208889,58.4125926 2.25755556,45.7496296 2.25755556,30.1833333 C2.25755556,14.6174074 14.9208889,1.95333333 30.4868148,1.95333333 C46.0523704,1.95333333 58.7168148,14.6174074 58.7168148,30.1833333 C58.7168148,45.7496296 46.0523704,58.4125926 30.4868148,58.4125926 M30.4868148,0 C13.8434815,0 0.303851852,13.5407407 0.303851852,30.1833333 C0.303851852,46.8262963 13.8434815,60.3662963 30.4868148,60.3662963 C47.1297778,60.3662963 60.6701481,46.8262963 60.6701481,30.1833333 C60.6701481,13.5407407 47.1297778,0 30.4868148,0" id="Fill-40"></path>
                <path d="M36.5096667,40.8672222 L34.5533704,38.9109259 L39.2152222,38.9109259 L39.2152222,34.2490741 L42.0385556,37.0724074 L42.0385556,41.7342593 L38.6033704,41.7342593 C37.813,41.7342593 37.0685556,41.4261111 36.5096667,40.8672222 L36.5096667,40.8672222 Z M34.4378148,34.1335185 L34.4378148,29.4716667 L37.2611481,32.2953704 L37.2611481,36.9572222 L32.5992963,36.9572222 L29.775963,34.1335185 L34.4378148,34.1335185 Z M28.4904074,32.1798148 L32.4841111,32.1798148 L32.4841111,28.1857407 L28.4904074,28.1857407 L28.4904074,32.1798148 Z M23.713,23.4087037 L28.3744815,23.4087037 L31.1981852,26.2324074 L26.5363333,26.2324074 L26.5363333,30.8942593 L23.713,28.0705556 L23.713,23.4087037 Z M18.935963,18.6316667 L22.3707778,18.6316667 C23.1615185,18.6316667 23.9055926,18.9398148 24.4648519,19.4987037 L26.4211481,21.455 L21.7592963,21.455 L21.7592963,26.1168519 L18.935963,23.2935185 L18.935963,18.6316667 Z M39.9933704,18.6316667 L42.0385556,18.6316667 L42.0385556,34.3101852 L25.845963,18.1175926 C24.9178148,17.1894444 23.6833704,16.677963 22.3707778,16.677963 L16.9818889,16.677963 L16.9818889,17.655 L16.9818889,24.1024074 L16.9818889,41.7342593 L14.9370741,41.7342593 L14.9370741,43.687963 L20.980037,43.687963 L20.980037,41.7342593 L18.935963,41.7342593 L18.935963,26.0557407 L35.1285556,42.2483333 C36.0563333,43.1768519 37.2907778,43.687963 38.6033704,43.687963 L43.9922593,43.687963 L43.9922593,42.7112963 L43.9922593,36.2638889 L43.9922593,18.6316667 L46.0363333,18.6316667 L46.0363333,16.677963 L39.9933704,16.677963 L39.9933704,18.6316667 Z" id="Fill-41"></path>
            </g>
        </g>
    </g>
</svg>