<?xml version="1.0" encoding="UTF-8"?>
<svg width="170px" height="61px" viewBox="0 0 170 61" version="1.1" xmlns="http://www.w3.org/2000/svg" xmlns:xlink="http://www.w3.org/1999/xlink">
    <title>logo</title>
    <g id="Web" stroke="none" stroke-width="1" fill="none" fill-rule="evenodd">
        <g id="NewMenu_00" transform="translate(-1385.000000, -30.000000)" fill="#1A1919">
            <g id="logo" transform="translate(1385.000000, 30.000000)">
                <path d="M8.45418519,25.0121852 C7.5227037,25.1744074 6.40492593,25.2458889 5.21788889,25.2458889 C3.00455556,25.2458889 2.07307407,24.1962593 2.07307407,21.9377407 L2.07307407,15.4395926 L0.000111111111,15.4395926 L0.000111111111,22.0777407 C0.000111111111,25.5258889 1.60751852,27.224037 5.12418519,27.224037 C6.80011111,27.224037 9.10714815,27.039963 10.5508519,26.6662593 L10.5508519,26.2236667 L10.5508519,15.4395926 L8.45418519,15.4395926 L8.45418519,25.0121852 Z" id="Fill-23"></path>
                <polygon id="Fill-25" points="4.44848148 11.735963 6.56811111 11.735963 6.56811111 9.19966667 4.44848148 9.19966667"></polygon>
                <path d="M18.9598519,17.5827037 L18.9598519,22.1245556 C18.5642963,22.2397407 18.1920741,22.3334444 17.7261481,22.3334444 C16.6076296,22.3334444 15.6531852,21.6571481 15.6531852,19.9127037 C15.6531852,18.1430741 16.748,17.4204815 17.8428148,17.4204815 C18.3087407,17.4204815 18.5876296,17.4893704 18.9598519,17.5827037 M13.5802222,19.9345556 C13.5802222,22.9404815 15.350963,24.3608519 17.6794815,24.3608519 C18.1454074,24.3608519 18.5642963,24.3141852 18.9365185,24.2208519 C18.7742963,25.8967778 17.8194815,26.8064074 15.8398519,26.8064074 C15.6061481,26.8064074 14.6046667,26.7349259 14.3257778,26.7349259 L15.3042963,28.7845556 L15.9554074,28.7845556 C19.4257778,28.7845556 21.0561481,27.0401111 21.0561481,23.6852963 L21.0561481,15.9752963 C19.7528148,15.6045556 18.9831852,15.4393704 17.7961481,15.4393704 C15.5831852,15.4393704 13.5802222,16.8601111 13.5802222,19.9345556" id="Fill-27"></path>
                <path d="M92.7572222,19.6324074 C92.7572222,21.4264815 92.0827778,22.3331481 90.242037,22.3331481 L85.8305556,22.3331481 L85.8305556,9.22166667 L83.7342593,9.22166667 L83.7342593,22.3331481 L83.7342593,24.3609259 L85.8305556,24.3609259 L90.452037,24.3609259 C93.4568519,24.3609259 94.8535185,22.8690741 94.8535185,20.0061111 L94.8535185,15.4394444 L92.7572222,15.4394444 L92.7572222,19.6324074 Z" id="Fill-28"></path>
                <polygon id="Fill-29" points="92.734037 11.7604074 94.8536667 11.7604074 94.8536667 9.22188889 92.734037 9.22188889"></polygon>
                <path d="M78.7952593,22.3332963 L53.9671111,22.3332963 C53.2226667,22.3332963 52.4297037,22.1932963 51.5682222,21.7507037 C51.7319259,21.1929259 51.8256296,20.6792222 51.8256296,20.0058889 L51.8256296,15.4395926 L49.7056296,15.4395926 L49.7056296,19.6325556 C49.7056296,21.4266296 49.193037,22.3332963 47.7256296,22.3332963 C47.0034074,22.3332963 46.1885926,22.2177407 45.3504444,21.7755185 C45.536,21.3084815 45.6063704,20.6792222 45.6063704,20.0058889 L45.6063704,15.4395926 L43.5097037,15.4395926 L43.5097037,19.6325556 C43.5097037,21.4266296 43.0204444,22.3332963 41.5534074,22.3332963 C40.7156296,22.3332963 39.6437778,22.2177407 38.7826667,22.0310741 L38.7826667,15.4395926 L36.6863704,15.4395926 L36.6863704,25.2458889 L33.4493333,25.2458889 C31.2363704,25.2458889 30.3045185,24.1962593 30.3045185,21.9377407 L30.3045185,15.4395926 L28.2319259,15.4395926 L28.2319259,22.0777407 C28.2319259,25.5258889 29.838963,27.224037 33.3556296,27.224037 L38.7826667,27.224037 L38.7826667,24.0588519 C39.8071111,24.2429259 40.9019259,24.3610741 41.6704444,24.3610741 C42.6948889,24.3610741 43.603037,24.0588519 44.2793333,23.4984815 C45.513037,24.1495926 46.6545185,24.3610741 47.843037,24.3610741 C48.983037,24.3610741 49.8911852,24.0807037 50.5437778,23.4984815 C51.7319259,24.1273704 52.9422963,24.3610741 54.0608148,24.3610741 L78.7952593,24.3610741 L79.1700741,24.3610741 L80.8915556,24.3610741 L80.8915556,15.4395926 L78.7952593,15.4395926 L78.7952593,22.3332963 Z" id="Fill-30"></path>
                <polygon id="Fill-31" points="78.2595926 29.3452222 80.3795926 29.3452222 80.3795926 26.8063333 78.2595926 26.8063333"></polygon>
                <polygon id="Fill-32" points="74.4414444 29.3452222 76.5614444 29.3452222 76.5614444 26.8063333 74.4414444 26.8063333"></polygon>
                <path d="M28.0574074,39.2003704 C29.2744444,39.2003704 30.4537037,39.6162963 31.3777778,40.37 L32.7362963,38.7044444 C31.4292593,37.6388889 29.7677778,37.0522222 28.0574074,37.0522222 C24.0462963,37.0522222 20.7837037,40.2185185 20.7837037,44.1092593 C20.7837037,48.0003704 24.0462963,51.1662963 28.0574074,51.1662963 C29.7018519,51.1662963 31.312963,50.6188889 32.5951852,49.6248148 L31.2785185,47.927037 C30.3581481,48.6403704 29.2440741,49.0181481 28.0574074,49.0181481 C25.2318519,49.0181481 22.9318519,46.8155556 22.9318519,44.1092593 C22.9318519,41.402963 25.2318519,39.2003704 28.0574074,39.2003704" id="Fill-33"></path>
                <polygon id="Fill-34" points="15.3781111 51.0689259 17.5262593 51.0689259 17.5262593 37.1492963 15.3781111 37.1492963"></polygon>
                <polygon id="Fill-35" points="9.97222222 47.7246667 2.39555556 37.1491111 -1.0526559e-13 37.1491111 -1.0526559e-13 51.0691111 2.14814815 51.0691111 2.14814815 40.4939259 9.72407407 51.0683704 12.1203704 51.0683704 12.1203704 37.1494815 9.97222222 37.1494815"></polygon>
                <polygon id="Fill-36" points="81.0536667 47.7235926 73.4788519 37.1491481 71.0825556 37.1491481 71.0825556 51.0691481 73.2307037 51.0691481 73.2307037 40.4947037 80.8051481 51.0684074 83.2021852 51.0684074 83.2021852 37.1495185 81.0536667 37.1495185"></polygon>
                <polygon id="Fill-37" points="36.388963 51.1663333 44.9111852 51.1663333 44.9111852 49.0181852 38.5371111 49.0181852 38.5371111 44.8781852 43.7711852 44.8781852 43.7711852 42.730037 38.5371111 42.730037 38.5371111 39.2004074 44.9111852 39.2004074 44.9111852 37.0522593 36.388963 37.0522593"></polygon>
                <polygon id="Fill-38" points="94.981963 39.2003704 94.981963 37.0522222 86.4593704 37.0522222 86.4593704 51.1662963 94.981963 51.1662963 94.981963 49.0181481 88.6078889 49.0181481 88.6078889 44.8781481 93.841963 44.8781481 93.841963 42.73 88.6078889 42.73 88.6078889 39.2003704"></polygon>
                <path d="M60.7679259,49.0180741 C58.0616296,49.0180741 55.859037,46.8154815 55.859037,44.1091852 C55.859037,41.4028889 58.0616296,39.2002963 60.7679259,39.2002963 C63.4742222,39.2002963 65.6768148,41.4028889 65.6768148,44.1091852 C65.6768148,46.8154815 63.4742222,49.0180741 60.7679259,49.0180741 M60.7679259,37.0521481 C56.8768148,37.0521481 53.7108889,40.2184444 53.7108889,44.1091852 C53.7108889,48.0002963 56.8768148,51.1662222 60.7679259,51.1662222 C64.659037,51.1662222 67.824963,48.0002963 67.824963,44.1091852 C67.824963,40.2184444 64.659037,37.0521481 60.7679259,37.0521481" id="Fill-39"></path>
                <path d="M139.486815,58.4125926 C123.920889,58.4125926 111.257556,45.7496296 111.257556,30.1833333 C111.257556,14.6174074 123.920889,1.95333333 139.486815,1.95333333 C155.05237,1.95333333 167.716815,14.6174074 167.716815,30.1833333 C167.716815,45.7496296 155.05237,58.4125926 139.486815,58.4125926 M139.486815,2.52637417e-13 C122.843481,2.52637417e-13 109.303852,13.5407407 109.303852,30.1833333 C109.303852,46.8262963 122.843481,60.3662963 139.486815,60.3662963 C156.129778,60.3662963 169.670148,46.8262963 169.670148,30.1833333 C169.670148,13.5407407 156.129778,2.52637417e-13 139.486815,2.52637417e-13" id="Fill-40"></path>
                <path d="M145.509667,40.8672222 L143.55337,38.9109259 L148.215222,38.9109259 L148.215222,34.2490741 L151.038556,37.0724074 L151.038556,41.7342593 L147.60337,41.7342593 C146.813,41.7342593 146.068556,41.4261111 145.509667,40.8672222 L145.509667,40.8672222 Z M143.437815,34.1335185 L143.437815,29.4716667 L146.261148,32.2953704 L146.261148,36.9572222 L141.599296,36.9572222 L138.775963,34.1335185 L143.437815,34.1335185 Z M137.490407,32.1798148 L141.484111,32.1798148 L141.484111,28.1857407 L137.490407,28.1857407 L137.490407,32.1798148 Z M132.713,23.4087037 L137.374481,23.4087037 L140.198185,26.2324074 L135.536333,26.2324074 L135.536333,30.8942593 L132.713,28.0705556 L132.713,23.4087037 Z M127.935963,18.6316667 L131.370778,18.6316667 C132.161519,18.6316667 132.905593,18.9398148 133.464852,19.4987037 L135.421148,21.455 L130.759296,21.455 L130.759296,26.1168519 L127.935963,23.2935185 L127.935963,18.6316667 Z M148.99337,18.6316667 L151.038556,18.6316667 L151.038556,34.3101852 L134.845963,18.1175926 C133.917815,17.1894444 132.68337,16.677963 131.370778,16.677963 L125.981889,16.677963 L125.981889,17.655 L125.981889,24.1024074 L125.981889,41.7342593 L123.937074,41.7342593 L123.937074,43.687963 L129.980037,43.687963 L129.980037,41.7342593 L127.935963,41.7342593 L127.935963,26.0557407 L144.128556,42.2483333 C145.056333,43.1768519 146.290778,43.687963 147.60337,43.687963 L152.992259,43.687963 L152.992259,42.7112963 L152.992259,36.2638889 L152.992259,18.6316667 L155.036333,18.6316667 L155.036333,16.677963 L148.99337,16.677963 L148.99337,18.6316667 Z" id="Fill-41"></path>
            </g>
        </g>
    </g>
</svg>