<?xml version="1.0" standalone="no"?>
<!DOCTYPE svg PUBLIC "-//W3C//DTD SVG 20010904//EN"
 "http://www.w3.org/TR/2001/REC-SVG-20010904/DTD/svg10.dtd">
<svg version="1.0" xmlns="http://www.w3.org/2000/svg"
 width="2103.000000pt" height="783.000000pt" viewBox="0 0 2103.000000 783.000000"
 preserveAspectRatio="xMidYMid meet">

<g transform="translate(0.000000,783.000000) scale(0.100000,-0.100000)"
fill="#000000" stroke="none">
<path d="M3750 7500 c-1082 -57 -2077 -593 -2729 -1469 -381 -512 -609 -1096
-693 -1771 -20 -163 -17 -641 6 -815 58 -454 177 -838 385 -1240 182 -354 401
-646 697 -935 596 -579 1333 -920 2184 -1011 268 -29 690 -11 980 42 1399 253
2534 1312 2879 2685 81 323 105 530 105 889 0 307 -12 441 -64 705 -179 902
-700 1708 -1453 2248 -477 343 -1057 571 -1641 647 -105 13 -466 37 -506 33
-8 0 -76 -4 -150 -8z m520 -251 c396 -36 781 -146 1155 -329 366 -179 617
-360 915 -659 187 -188 304 -330 435 -531 296 -451 469 -931 537 -1485 19
-162 16 -614 -5 -780 -86 -645 -328 -1217 -726 -1715 -101 -126 -342 -372
-464 -473 -838 -694 -1915 -949 -2967 -701 -448 105 -940 344 -1305 632 -745
589 -1210 1456 -1286 2397 -14 180 -6 541 16 700 86 626 312 1164 699 1665
108 140 432 464 576 574 708 546 1534 786 2420 705z"/>
<path d="M2310 3996 l0 -1506 -120 0 -120 0 0 -120 0 -120 365 0 365 0 0 120
0 120 -125 0 -125 0 0 937 0 938 998 -996 c624 -623 1017 -1008 1049 -1028 29
-18 85 -45 125 -59 l73 -27 388 -3 387 -3 0 1505 0 1506 120 0 120 0 0 120 0
120 -365 0 -365 0 0 -120 0 -120 125 0 125 0 0 -935 c0 -514 -3 -935 -7 -935
-4 0 -460 452 -1013 1004 -1064 1063 -1021 1024 -1170 1079 -51 20 -80 21
-442 25 l-388 3 0 -1505z m805 1230 c45 -22 95 -64 195 -163 l135 -133 -277 0
-278 0 0 -282 0 -283 -170 170 -170 170 0 278 0 278 253 -3 252 -3 60 -29z
m740 -706 l170 -170 -283 0 -282 0 0 -277 0 -278 -165 165 -165 165 0 282 0
283 278 0 277 0 170 -170z m325 -645 l0 -235 -240 0 -240 0 0 235 0 235 240 0
240 0 0 -235z m570 -532 l0 -283 -278 0 -277 0 -170 170 -170 170 283 0 282 0
0 277 0 278 165 -165 165 -165 0 -282z m580 -576 l0 -278 -257 3 -258 3 -60
33 c-42 22 -102 74 -190 162 l-130 130 278 0 277 0 0 282 0 283 170 -170 170
-170 0 -278z"/>
<path d="M9880 6245 l0 -155 125 0 125 0 0 155 0 155 -125 0 -125 0 0 -155z"/>
<path d="M19410 5480 l0 -910 403 0 c221 0 443 5 494 10 211 22 337 109 402
278 25 67 25 67 29 430 l3 362 -125 0 -125 0 -3 -317 c-3 -310 -4 -319 -27
-371 -25 -56 -62 -93 -120 -120 -31 -14 -82 -17 -358 -20 l-323 -3 0 785 0
786 -125 0 -125 0 0 -910z"/>
<path d="M20490 6240 l0 -150 125 0 125 0 0 150 0 150 -125 0 -125 0 0 -150z"/>
<path d="M9342 5168 c4 -448 6 -488 24 -553 56 -196 168 -306 364 -361 128
-36 604 -19 820 29 l55 12 3 678 2 677 -125 0 -125 0 -2 -577 -3 -578 -50 -8
c-27 -5 -145 -10 -261 -11 l-211 -1 -68 35 c-79 40 -125 92 -152 173 -15 46
-18 108 -21 510 l-3 457 -125 0 -125 0 3 -482z"/>
<path d="M11383 5639 c-198 -33 -338 -163 -390 -362 -22 -83 -22 -261 0 -345
49 -185 163 -301 337 -342 48 -12 204 -16 265 -8 17 3 19 -2 16 -27 -12 -109
-86 -206 -187 -246 -53 -21 -74 -23 -210 -23 l-151 1 58 -121 58 -121 115 2
c291 4 465 115 545 351 l26 77 3 555 3 556 -93 22 c-159 38 -290 49 -395 31z
m187 -240 l50 -11 0 -273 0 -273 -50 -11 c-145 -31 -259 9 -309 108 -27 51
-44 154 -36 215 10 77 59 172 105 202 79 52 144 64 240 43z"/>
<path d="M12742 5153 l3 -498 26 -76 c47 -138 117 -222 234 -279 125 -61 142
-63 588 -68 l407 -3 0 191 0 191 38 -6 c20 -4 48 -8 62 -11 91 -15 261 -22
329 -13 72 10 170 47 215 81 17 14 26 12 83 -14 210 -95 510 -96 649 -2 35 24
42 25 69 14 103 -42 213 -70 311 -80 75 -8 602 -10 1709 -8 l1600 3 0 535 0
535 -125 0 -125 0 -3 -413 -2 -412 -1558 2 -1557 3 -57 22 c-101 38 -97 33
-82 105 10 44 14 157 14 381 l0 317 -124 0 -124 0 -4 -312 c-4 -258 -8 -322
-22 -365 -34 -106 -102 -152 -223 -153 -84 0 -159 14 -226 43 -45 19 -48 22
-41 46 4 14 9 187 11 384 l4 357 -125 0 -125 0 -3 -327 c-3 -321 -4 -329 -27
-381 -42 -94 -97 -122 -236 -122 -78 0 -277 24 -296 35 -5 4 -9 169 -9 401 l0
394 -125 0 -125 0 0 -591 0 -590 -257 3 c-298 4 -335 12 -410 90 -93 97 -95
111 -100 641 l-5 447 -119 0 -120 0 3 -497z"/>
<path d="M18290 4130 l0 -150 130 0 130 0 0 150 0 150 -130 0 -130 0 0 -150z"/>
<path d="M18750 4130 l0 -150 125 0 125 0 0 150 0 150 -125 0 -125 0 0 -150z"/>
<path d="M12530 3031 c-176 -39 -314 -114 -441 -240 -102 -102 -166 -205 -211
-341 -31 -91 -32 -102 -32 -250 0 -148 1 -159 32 -250 94 -282 320 -493 608
-570 101 -27 257 -36 354 -21 103 16 242 64 320 111 117 69 114 54 30 161 -40
52 -76 98 -80 102 -4 4 -33 -8 -65 -28 -84 -50 -154 -74 -258 -86 -396 -49
-734 282 -679 664 32 222 205 414 437 483 82 25 258 25 340 0 69 -21 146 -58
193 -93 28 -21 36 -23 46 -12 7 8 45 53 85 101 l71 87 -47 36 c-66 50 -192
109 -288 135 -115 31 -301 36 -415 11z"/>
<path d="M13710 2200 l0 -850 515 0 515 0 0 130 0 130 -380 0 -380 0 0 250 0
250 315 0 316 0 -3 128 -3 127 -312 3 -313 2 0 210 0 210 380 0 380 0 0 130 0
130 -515 0 -515 0 0 -850z"/>
<path d="M16525 3043 c-316 -44 -587 -276 -691 -593 -26 -79 -28 -97 -29 -250
0 -164 0 -165 36 -267 81 -229 225 -392 434 -493 121 -58 199 -79 325 -87 403
-24 764 242 871 642 28 104 30 288 6 389 -40 162 -106 284 -215 398 -127 133
-275 215 -454 252 -71 15 -210 19 -283 9z m240 -268 c213 -45 395 -216 450
-425 19 -71 19 -229 0 -300 -50 -190 -208 -353 -400 -413 -98 -30 -253 -29
-345 2 -158 55 -281 161 -348 303 -47 97 -62 162 -62 261 0 158 59 297 175
412 143 143 334 201 530 160z"/>
<path d="M19730 2200 l0 -850 515 0 515 0 0 130 0 130 -380 0 -380 0 0 250 0
250 315 0 316 0 -3 128 -3 127 -312 3 -313 2 0 210 0 210 380 0 380 0 0 130 0
130 -515 0 -515 0 0 -850z"/>
<path d="M9340 2200 l0 -840 130 0 130 0 2 632 3 632 451 -630 451 -629 147
-3 146 -3 0 841 0 840 -130 0 -130 0 -2 -632 -3 -632 -451 630 -450 629 -147
3 -147 3 0 -841z"/>
<path d="M11190 2200 l0 -840 130 0 130 0 0 840 0 840 -130 0 -130 0 0 -840z"/>
<path d="M17885 3028 c-3 -7 -4 -384 -3 -838 l3 -825 130 0 130 0 5 626 5 627
450 -629 450 -629 145 2 145 3 0 835 0 835 -130 0 -130 0 -5 -626 -5 -625
-450 628 -450 628 -143 0 c-105 0 -144 -3 -147 -12z"/>
</g>
</svg>
