<?xml version="1.0" encoding="UTF-8" standalone="no"?>
<svg
   xmlns:dc="http://purl.org/dc/elements/1.1/"
   xmlns:cc="http://creativecommons.org/ns#"
   xmlns:rdf="http://www.w3.org/1999/02/22-rdf-syntax-ns#"
   xmlns:svg="http://www.w3.org/2000/svg"
   xmlns="http://www.w3.org/2000/svg"
   viewBox="0 0 372.48001 194.06667"
   height="194.06667"
   width="372.48001"
   xml:space="preserve"
   id="svg2"
   version="1.1"><metadata
     id="metadata8"><rdf:RDF><cc:Work
         rdf:about=""><dc:format>image/svg+xml</dc:format><dc:type
           rdf:resource="http://purl.org/dc/dcmitype/StillImage" /></cc:Work></rdf:RDF></metadata><defs
     id="defs6"><clipPath
       id="clipPath18"
       clipPathUnits="userSpaceOnUse"><path
         id="path16"
         d="M 0,145.55 H 279.36 V 0 H 0 Z" /></clipPath></defs><g
     transform="matrix(1.3333333,0,0,-1.3333333,0,194.06667)"
     id="g10"><g
       id="g12"><g
         clip-path="url(#clipPath18)"
         id="g14"><g
           transform="translate(61.8,92.2369)"
           id="g20"><path
             id="path22"
             style="fill:#ed942a;fill-opacity:1;fill-rule:nonzero;stroke:none"
             d="m 0,0 c -1.34,-2.209 -2.874,-4.288 -4.341,-6.411 -0.419,-0.606 -0.381,-0.967 0.063,-1.54 1.862,-2.404 3.06,-5.128 3.584,-8.127 0.092,-0.526 0.296,-0.711 0.806,-0.804 4.836,-0.888 9.667,-1.804 14.499,-2.714 0.287,-0.053 0.569,-0.129 0.842,-0.301 h -2.627 c -4.873,0 -9.746,0.005 -14.619,-0.009 -0.559,-0.001 -0.835,0.034 -0.882,0.758 -0.462,7.005 -3.813,12.111 -10.185,15.144 -1.959,0.933 -4.058,1.385 -6.234,1.445 -0.358,0.01 -0.696,-0.048 -0.693,0.517 0.024,5.771 0.029,11.542 0.039,17.313 0,0.019 0.016,0.039 0.063,0.149 0.684,-3.649 1.353,-7.217 2.02,-10.786 0.28,-1.496 0.564,-2.99 0.825,-4.489 0.069,-0.394 0.209,-0.6 0.644,-0.683 3.154,-0.602 6.007,-1.882 8.51,-3.901 0.354,-0.285 0.582,-0.208 0.914,0.022 1.964,1.368 3.943,2.715 5.922,4.062 0.243,0.166 0.46,0.393 0.78,0.421 C -0.046,0.043 -0.023,0.021 0,0" /></g><g
           transform="translate(22.3156,92.3033)"
           id="g24"><path
             id="path26"
             style="fill:#6e7a7a;fill-opacity:1;fill-rule:nonzero;stroke:none"
             d="m 0,0 c 1.104,-0.488 2,-1.296 2.997,-1.948 1.252,-0.819 2.488,-1.664 3.702,-2.537 0.381,-0.275 0.627,-0.259 0.983,0.025 2.739,2.19 5.862,3.491 9.327,4.005 1.213,0.18 1.209,0.207 1.209,-1.041 0,-1.15 0,-1.15 -1.142,-1.313 C 9.407,-3.905 3.223,-10.538 2.686,-18.243 2.565,-19.964 2.565,-19.964 0.823,-19.964 H -15.51 c -0.008,0.04 -0.016,0.08 -0.024,0.121 1.138,0.222 2.276,0.448 3.416,0.663 4.004,0.756 8.008,1.518 12.016,2.249 0.456,0.083 0.634,0.258 0.711,0.707 0.54,3.114 1.787,5.924 3.75,8.399 0.367,0.463 0.301,0.77 -0.004,1.207 -1.417,2.03 -2.805,4.079 -4.2,6.124 -0.09,0.133 -0.151,0.285 -0.225,0.427 C -0.046,-0.044 -0.023,-0.022 0,0" /></g><g
           transform="translate(40.0344,95.1402)"
           id="g28"><path
             id="path30"
             style="fill:#ed942a;fill-opacity:1;fill-rule:nonzero;stroke:none"
             d="m 0,0 c 0.268,0.024 0.488,0 0.504,-0.354 0.017,-0.391 -0.181,-0.531 -0.539,-0.549 -1.061,-0.053 -2.099,-0.263 -3.128,-0.512 -2.806,-0.679 -5.386,-1.854 -7.689,-3.601 -0.351,-0.266 -0.64,-0.331 -0.905,-0.002 -0.315,0.389 0.144,0.517 0.334,0.657 3.148,2.312 6.655,3.739 10.536,4.236 C -0.591,-0.087 -0.296,-0.042 0,0" /></g><g
           transform="translate(46.0681,94.8277)"
           id="g32"><path
             id="path34"
             style="fill:#6e7a7a;fill-opacity:1;fill-rule:nonzero;stroke:none"
             d="M 0,0 C 3.505,-0.629 6.619,-2.016 9.428,-4.096 9.601,-4.225 10.006,-4.34 9.714,-4.708 9.46,-5.029 9.189,-4.99 8.875,-4.751 6.437,-2.905 3.707,-1.678 0.729,-1.02 0.157,-0.894 -0.057,-0.643 0,0" /></g><g
           transform="translate(37.1369,84.9361)"
           id="g36"><path
             id="path38"
             style="fill:#6e7a7a;fill-opacity:1;fill-rule:nonzero;stroke:none"
             d="m 0,0 c -0.024,-0.318 -0.279,-0.361 -0.481,-0.459 -3.345,-1.622 -5.543,-4.204 -6.545,-7.796 -0.083,-0.295 -0.092,-0.768 -0.56,-0.666 -0.566,0.124 -0.182,0.56 -0.115,0.798 1.059,3.775 3.323,6.565 6.879,8.266 C -0.54,0.277 -0.153,0.626 0,0" /></g><g
           transform="translate(53.9865,76.2711)"
           id="g40"><path
             id="path42"
             style="fill:#6e7a7a;fill-opacity:1;fill-rule:nonzero;stroke:none"
             d="m 0,0 c 0.033,-0.141 0.022,-0.293 -0.142,-0.303 -0.155,-0.009 -0.395,0.009 -0.457,0.106 -0.137,0.215 -0.199,0.483 -0.27,0.736 C -1.722,3.615 -3.546,5.951 -6.253,7.616 -6.45,7.737 -6.651,7.854 -6.849,7.973 -7.083,8.115 -7.167,8.336 -7.026,8.56 -6.884,8.786 -6.678,8.64 -6.509,8.549 -3.078,6.706 -0.934,3.874 -0.022,0.096 -0.015,0.063 -0.007,0.031 0,0" /></g><g
           transform="translate(22.0969,92.4151)"
           id="g44"><path
             id="path46"
             style="fill:#ed9e5c;fill-opacity:1;fill-rule:nonzero;stroke:none"
             d="m 0,0 c -0.017,0.013 -0.033,0.026 -0.049,0.04 0.013,-0.017 0.027,-0.034 0.04,-0.051 z" /></g><g
           transform="translate(61.9577,92.4044)"
           id="g48"><path
             id="path50"
             style="fill:#ed9e5c;fill-opacity:1;fill-rule:nonzero;stroke:none"
             d="M 0,0 C 0.005,0.021 0.009,0.041 0.014,0.062 0.006,0.045 -0.001,0.028 -0.009,0.011 Z" /></g><g
           transform="translate(22.0876,92.4044)"
           id="g52"><path
             id="path54"
             style="fill:#ed9e5c;fill-opacity:1;fill-rule:nonzero;stroke:none"
             d="M 0,0 C 0.076,-0.034 0.151,-0.068 0.228,-0.102 0.205,-0.124 0.182,-0.146 0.158,-0.168 0.108,-0.108 0.059,-0.049 0.009,0.011 Z" /></g><g
           transform="translate(61.9484,92.4156)"
           id="g56"><path
             id="path58"
             style="fill:#ed9e5c;fill-opacity:1;fill-rule:nonzero;stroke:none"
             d="m 0,0 c -0.049,-0.06 -0.099,-0.119 -0.148,-0.179 -0.024,0.022 -0.047,0.044 -0.07,0.067 0.075,0.034 0.151,0.068 0.227,0.101 z" /></g><g
           transform="translate(67.4108,47.8775)"
           id="g60"><path
             id="path62"
             style="fill:#ed942a;fill-opacity:1;fill-rule:nonzero;stroke:none"
             d="m 0,0 c -0.108,0.297 -0.166,0.627 -0.333,0.886 -1.283,1.991 -2.592,3.966 -3.885,5.951 -1.578,2.424 -3.138,4.86 -4.734,7.272 -0.214,0.323 -0.596,0.531 -0.896,0.796 -0.073,0.066 -0.176,0.14 -0.19,0.223 -0.272,1.644 -1.452,2.803 -2.257,4.152 -1.064,1.783 -2.249,3.494 -3.396,5.227 -1.233,1.861 -2.496,3.702 -3.718,5.57 -0.971,1.485 -1.885,3.009 -2.857,4.494 -0.355,0.542 -0.817,1.014 -1.201,1.539 -0.175,0.241 -0.265,0.54 -0.415,0.802 -0.159,0.276 -0.349,0.532 -0.512,0.805 -0.287,0.482 -0.564,0.97 -0.925,1.594 -3.324,-5.084 -6.535,-10.081 -9.783,-15.065 0.877,-0.093 1.454,0.096 1.847,1.041 0.378,0.908 1.145,1.65 1.699,2.491 1.736,2.636 3.452,5.286 5.177,7.931 0.289,0.442 0.578,0.886 0.868,1.329 0.078,-0.019 0.157,-0.038 0.235,-0.057 0.038,-0.253 0.11,-0.507 0.109,-0.761 -0.006,-4.658 -0.021,-9.314 -0.034,-13.971 -0.002,-0.789 -0.277,-1.324 -1.046,-1.733 -0.654,-0.349 -1.132,-1.023 -1.701,-1.537 -0.075,-0.069 -0.23,-0.05 -0.385,-0.079 0.563,-0.613 1.063,-0.547 1.642,-0.066 0.455,0.38 0.992,0.903 1.496,0.907 0.435,0.003 0.873,-0.638 1.314,-0.991 1.978,-1.584 3.864,-3.309 5.968,-4.703 1.53,-1.014 2.641,-2.473 4.194,-3.427 0.933,-0.571 1.813,-1.242 2.66,-1.936 C -9.625,7.511 -8.313,6.17 -6.789,5.137 -6.195,4.735 -5.64,4.24 -5,3.873 -4.314,3.478 -3.808,2.78 -3.184,2.263 -2.219,1.463 -1.22,0.703 -0.235,-0.074 -0.157,-0.05 -0.079,-0.024 0,0" /></g><g
           transform="translate(23.2038,53.9654)"
           id="g64"><path
             id="path66"
             style="fill:#ed942a;fill-opacity:1;fill-rule:nonzero;stroke:none"
             d="m 0,0 c -0.683,-0.477 -1.366,-0.952 -2.049,-1.429 -0.067,0.063 -0.134,0.125 -0.2,0.188 C 1.447,4.46 5.143,10.16 8.873,15.913 8.716,16.134 8.544,16.377 8.249,16.795 6.929,14.794 5.659,12.87 4.393,10.944 3.1,8.979 1.784,7.027 0.527,5.039 -0.735,3.045 -1.892,0.982 -3.179,-0.995 c -1.25,-1.92 -2.605,-3.772 -3.834,-5.793 0.148,0.068 0.317,0.108 0.439,0.208 1.33,1.084 2.72,2.105 3.957,3.287 1.174,1.122 2.692,1.792 3.741,3.085 0.483,0.595 1.329,0.88 1.946,1.385 0.876,0.715 1.664,1.538 2.542,2.25 0.736,0.595 1.588,1.052 2.315,1.657 0.704,0.586 1.294,1.307 1.978,1.92 0.223,0.2 0.627,0.187 0.872,0.373 0.967,0.731 1.914,1.49 2.841,2.272 0.152,0.128 0.163,0.422 0.244,0.651 0.861,-0.253 1.114,0.122 0.799,1.497 C 14.48,11.691 14.299,11.614 14.151,11.496 11.909,9.702 9.666,7.909 7.44,6.095 7.093,5.812 6.833,5.426 6.527,5.094 6.303,4.853 6.098,4.579 5.833,4.394 4.65,3.564 3.438,2.78 2.26,1.944 1.669,1.524 1.12,1.042 0.575,0.562 0.387,0.396 0.271,0.147 0.123,-0.063 0.082,-0.042 0.041,-0.021 0,0" /></g><g
           transform="translate(19.715,76.8052)"
           id="g68"><path
             id="path70"
             style="fill:#ed942a;fill-opacity:1;fill-rule:nonzero;stroke:none"
             d="M 0,0 C 0.487,2.583 1.406,4.957 2.711,7.179 3.106,7.851 3.556,8.491 4.012,9.123 4.124,9.277 4.226,9.657 4.537,9.429 4.812,9.228 4.939,8.947 4.676,8.594 4.292,8.077 3.924,7.543 3.587,6.993 2.311,4.91 1.398,2.681 0.928,0.277 0.881,0.038 0.857,-0.222 0.584,-0.315 0.438,-0.366 0.258,-0.411 0.119,-0.37 -0.08,-0.312 -0.001,-0.106 0,0" /></g><g
           transform="translate(63.7141,76.9224)"
           id="g72"><path
             id="path74"
             style="fill:#6e7a7a;fill-opacity:1;fill-rule:nonzero;stroke:none"
             d="m 0,0 c -0.015,-0.275 0.054,-0.477 -0.183,-0.506 -0.249,-0.03 -0.519,0.01 -0.625,0.261 -0.113,0.267 -0.15,0.567 -0.216,0.854 -0.656,2.816 -1.851,5.384 -3.541,7.726 -0.048,0.065 -0.1,0.127 -0.151,0.19 -0.252,0.313 -0.091,0.577 0.145,0.771 0.315,0.259 0.419,-0.118 0.53,-0.268 C -2.539,7.032 -1.417,4.835 -0.665,2.454 -0.398,1.609 -0.2,0.743 0,0" /></g><g
           transform="translate(91.2028,60.9654)"
           id="g76"><path
             id="path78"
             style="fill:#6e7a7a;fill-opacity:1;fill-rule:nonzero;stroke:none"
             d="M 0,0 C 0.649,0 1.211,0.257 1.687,0.773 2.163,1.272 2.4,1.885 2.4,2.609 2.4,3.315 2.163,3.907 1.687,4.383 1.22,4.864 0.657,5.105 0,5.105 H -2.675 V 0 Z M 5.811,-9.453 H 2.317 l -3.102,6.119 h -1.89 V -9.453 H -5.931 V 8.452 H 0.32 C 1.842,8.452 3.137,7.891 4.207,6.767 5.276,5.643 5.811,4.281 5.811,2.684 V 2.51 c 0,-2.422 -1.109,-4.209 -3.328,-5.359 z" /></g><g
           transform="translate(107.069,54.6089)"
           id="g80"><path
             id="path82"
             style="fill:#6e7a7a;fill-opacity:1;fill-rule:nonzero;stroke:none"
             d="m 0,0 c 0.721,0 1.388,0.143 2.002,0.425 0.614,0.282 1.182,0.699 1.706,1.248 1.053,1.083 1.58,2.46 1.58,4.133 0,1.607 -0.527,2.988 -1.58,4.146 -1.015,1.115 -2.278,1.673 -3.791,1.673 -1.53,0 -2.789,-0.558 -3.78,-1.673 -1.014,-1.074 -1.521,-2.456 -1.521,-4.146 0,-1.897 0.657,-3.409 1.972,-4.533 C -2.421,0.425 -1.284,0 0,0 m 0,-3.097 c -2.417,0 -4.441,0.874 -6.074,2.623 -1.616,1.815 -2.424,3.908 -2.424,6.28 0,1.681 0.381,3.198 1.141,4.546 0.729,1.365 1.759,2.451 3.09,3.258 1.323,0.799 2.746,1.199 4.267,1.199 2.265,0 4.23,-0.873 5.895,-2.622 C 7.574,10.405 8.414,8.279 8.414,5.806 8.414,3.275 7.602,1.158 5.978,-0.549 4.337,-2.248 2.345,-3.097 0,-3.097" /></g><g
           transform="translate(136.8029,69.4175)"
           id="g84"><path
             id="path86"
             style="fill:#6e7a7a;fill-opacity:1;fill-rule:nonzero;stroke:none"
             d="m 0,0 -3.898,-17.905 h -3.114 l -3.173,11.55 -3.114,-11.55 h -3.019 L -20.228,0 h 3.186 L -14.57,-11.461 -11.457,0 h 2.615 L -5.728,-11.461 -3.186,0 Z" /></g><g
           transform="translate(145.8347,69.4175)"
           id="g88"><path
             id="path90"
             style="fill:#6e7a7a;fill-opacity:1;fill-rule:nonzero;stroke:none"
             d="m 0,0 0.083,-0.25 -1.664,-4.507 -2.305,-6.156 h 4.599 l -1.105,2.91 1.663,4.507 5.313,-14.409 H 3.161 l -1.26,3.671 h -6.976 l -1.426,-3.671 H -9.829 L -3.256,0 Z" /></g><g
           transform="translate(159.884,54.8463)"
           id="g92"><path
             id="path94"
             style="fill:#6e7a7a;fill-opacity:1;fill-rule:nonzero;stroke:none"
             d="M 0,0 C 3.827,0 5.776,1.873 5.847,5.62 5.776,9.364 3.827,11.238 0,11.238 H -1.687 V 5.62 0 Z M 7.999,10.4 C 8.355,9.744 8.621,9.015 8.794,8.216 8.969,7.417 9.064,6.552 9.08,5.62 9.064,4.686 8.969,3.821 8.794,3.022 8.621,2.223 8.355,1.494 7.999,0.837 7.183,-0.646 6.18,-1.702 4.992,-2.334 c -1.197,-0.668 -3.019,-1 -5.467,-1 h -4.457 v 8.954 8.951 h 4.457 c 2.448,0 4.27,-0.332 5.467,-0.998 C 6.18,12.94 7.183,11.884 7.999,10.4" /></g><g
           transform="translate(184.5847,51.5123)"
           id="g96"><path
             id="path98"
             style="fill:#6e7a7a;fill-opacity:1;fill-rule:nonzero;stroke:none"
             d="m 0,0 c -2.282,0 -4.018,1.244 -5.206,3.733 l 2.65,1.662 c 0.777,-1.533 1.657,-2.298 2.639,-2.298 0.515,0 0.966,0.158 1.354,0.474 0.349,0.341 0.524,0.713 0.524,1.113 0,0.39 -0.123,0.785 -0.369,1.185 -0.158,0.192 -0.388,0.43 -0.69,0.718 -0.3,0.287 -0.677,0.631 -1.129,1.03 -0.863,0.757 -1.578,1.426 -2.144,2.004 -0.567,0.578 -0.981,1.071 -1.242,1.48 -0.555,0.833 -0.833,1.647 -0.833,2.447 0,1.198 0.428,2.227 1.285,3.085 0.887,0.848 1.94,1.272 3.161,1.272 0.839,0 1.62,-0.212 2.341,-0.635 C 2.713,17.077 3.097,16.803 3.494,16.445 3.89,16.087 4.31,15.65 4.753,15.134 L 2.412,12.999 C 1.628,14.156 0.823,14.734 0,14.734 c -0.46,0 -0.785,-0.103 -0.975,-0.311 -0.254,-0.209 -0.38,-0.476 -0.38,-0.799 0,-0.251 0.075,-0.508 0.225,-0.774 0.151,-0.167 0.415,-0.428 0.791,-0.782 C 0.037,11.714 0.53,11.259 1.141,10.701 1.854,10.076 2.396,9.581 2.769,9.216 3.015,8.981 3.196,8.816 3.315,8.715 4.425,7.593 4.979,6.302 4.979,4.845 4.979,3.413 4.523,2.248 3.612,1.348 2.709,0.449 1.505,0 0,0" /></g><g
           transform="translate(201.4987,69.4175)"
           id="g100"><path
             id="path102"
             style="fill:#6e7a7a;fill-opacity:1;fill-rule:nonzero;stroke:none"
             d="m 0,0 h 3.173 v -11.351 c 0,-0.907 -0.164,-1.756 -0.493,-2.551 -0.329,-0.796 -0.777,-1.489 -1.343,-2.08 -0.566,-0.591 -1.229,-1.06 -1.985,-1.405 -0.756,-0.345 -1.567,-0.518 -2.43,-0.518 -0.863,0 -1.674,0.173 -2.431,0.518 -0.757,0.345 -1.416,0.814 -1.978,1.405 -0.563,0.591 -1.009,1.284 -1.337,2.08 -0.329,0.795 -0.493,1.644 -0.493,2.551 V 0 h 3.173 v -11.425 c 0,-0.449 0.081,-0.869 0.243,-1.262 0.163,-0.39 0.382,-0.731 0.66,-1.022 0.277,-0.292 0.602,-0.521 0.974,-0.687 0.372,-0.167 0.769,-0.25 1.189,-0.25 0.428,0 0.828,0.083 1.2,0.25 0.372,0.166 0.697,0.395 0.975,0.687 0.277,0.291 0.497,0.632 0.659,1.022 0.162,0.393 0.244,0.813 0.244,1.262 z" /></g><g
           transform="translate(213.8825,60.9654)"
           id="g104"><path
             id="path106"
             style="fill:#6e7a7a;fill-opacity:1;fill-rule:nonzero;stroke:none"
             d="M 0,0 C 0.648,0 1.212,0.257 1.687,0.773 2.163,1.272 2.399,1.885 2.399,2.609 2.399,3.315 2.163,3.907 1.687,4.383 1.219,4.864 0.657,5.105 0,5.105 H -2.675 V 0 Z M 5.812,-9.453 H 2.316 l -3.101,6.119 h -1.89 V -9.453 H -5.931 V 8.452 H 0.32 C 1.841,8.452 3.136,7.891 4.206,6.767 5.275,5.643 5.812,4.281 5.812,2.684 V 2.51 c 0,-2.422 -1.11,-4.209 -3.329,-5.359 z" /></g><g
           transform="translate(235.9352,69.4175)"
           id="g108"><path
             id="path110"
             style="fill:#6e7a7a;fill-opacity:1;fill-rule:nonzero;stroke:none"
             d="M 0,0 -4.86,-14.134 -6.524,-9.202 -3.34,0 Z m -12.015,0 5.966,-17.644 -0.155,-0.261 H -9.305 L -15.366,0 Z" /></g><g
           transform="translate(248.654,69.4175)"
           id="g112"><path
             id="path114"
             style="fill:#6e7a7a;fill-opacity:1;fill-rule:nonzero;stroke:none"
             d="M 0,0 V -3.333 H -7.06 V -7.328 H 0 v -3.248 h -7.06 v -3.995 H 0 v -3.334 H -10.232 V 0 Z" /></g><g
           transform="translate(265.0085,69.4175)"
           id="g116"><path
             id="path118"
             style="fill:#6e7a7a;fill-opacity:1;fill-rule:nonzero;stroke:none"
             d="M 0,0 -3.589,-7.354 -5.336,-3.846 -3.434,0 Z m -9.792,0 0.641,-1.248 4.124,-8.541 v -8.116 h -3.256 v 7.78 L -13.299,0 Z" /></g><g
           transform="translate(86.8122,92.5035)"
           id="g120"><path
             id="path122"
             style="fill:#ed942a;fill-opacity:1;fill-rule:nonzero;stroke:none"
             d="M 0,0 C 0.467,0 0.869,0.135 1.205,0.405 1.541,0.676 1.709,1.066 1.709,1.578 1.709,2.045 1.545,2.421 1.216,2.706 0.887,2.991 0.482,3.133 0,3.133 -0.482,3.133 -0.888,2.991 -1.216,2.706 -1.545,2.421 -1.709,2.045 -1.709,1.578 -1.709,1.066 -1.542,0.676 -1.205,0.405 -0.869,0.135 -0.468,0 0,0" /></g><g
           transform="translate(250.3405,80.5172)"
           id="g124"><path
             id="path126"
             style="fill:#ed942a;fill-opacity:1;fill-rule:nonzero;stroke:none"
             d="m 0,0 h -1.293 c -0.496,0 -0.96,0.065 -1.392,0.197 -0.43,0.131 -0.806,0.328 -1.128,0.592 -0.321,0.263 -0.573,0.588 -0.756,0.975 -0.183,0.387 -0.274,0.836 -0.274,1.347 0,0.468 0.099,0.892 0.296,1.272 0.197,0.38 0.46,0.704 0.789,0.974 0.328,0.271 0.708,0.479 1.14,0.625 0.43,0.146 0.872,0.219 1.325,0.219 L 0,6.201 Z M -3.418,8.842 C -4.339,8.557 -5.131,8.151 -5.796,7.626 -6.461,7.1 -6.979,6.457 -7.352,5.697 -7.725,4.937 -7.91,4.075 -7.91,3.111 c 0,-1.095 0.193,-2.034 0.58,-2.815 0.388,-0.782 0.921,-1.421 1.6,-1.918 0.679,-0.496 1.475,-0.861 2.388,-1.096 0.913,-0.233 1.896,-0.35 2.947,-0.35 h 0.351 c -0.044,-0.38 -0.135,-0.687 -0.273,-0.92 -0.139,-0.234 -0.322,-0.413 -0.548,-0.537 -0.227,-0.124 -0.501,-0.204 -0.822,-0.242 -0.322,-0.036 -0.694,-0.054 -1.118,-0.054 -0.511,0 -1.022,0.044 -1.534,0.132 -0.512,0.087 -1.066,0.226 -1.665,0.416 l 0.219,-3.09 0.898,-0.241 c 0.263,-0.058 0.515,-0.11 0.756,-0.154 0.241,-0.044 0.486,-0.076 0.735,-0.098 0.248,-0.022 0.518,-0.033 0.81,-0.033 1.081,0 1.983,0.139 2.706,0.416 0.724,0.278 1.301,0.665 1.732,1.161 0.43,0.498 0.738,1.093 0.92,1.787 0.183,0.694 0.274,1.457 0.274,2.29 L 3.067,9.269 h -3.462 c -1.095,0 -2.103,-0.143 -3.023,-0.427" /></g><g
           transform="translate(90.34,80.5172)"
           id="g128"><path
             id="path130"
             style="fill:#ed942a;fill-opacity:1;fill-rule:nonzero;stroke:none"
             d="m 0,0 h -1.336 c -0.454,0 -0.892,0.065 -1.315,0.197 -0.424,0.131 -0.8,0.328 -1.129,0.592 -0.328,0.263 -0.592,0.584 -0.789,0.964 -0.197,0.38 -0.296,0.825 -0.296,1.337 0,0.496 0.106,0.938 0.318,1.325 0.212,0.388 0.493,0.712 0.844,0.976 0.35,0.262 0.745,0.463 1.183,0.602 0.438,0.139 0.884,0.208 1.337,0.208 l 1.183,0 z m 53.934,7.998 c -0.526,0.54 -1.158,0.957 -1.896,1.249 -0.737,0.292 -1.559,0.439 -2.465,0.439 -0.92,0 -1.775,-0.125 -2.564,-0.373 C 46.22,9.064 45.468,8.735 44.752,8.327 l 1.271,-2.674 c 0.57,0.366 1.096,0.618 1.578,0.756 0.482,0.139 1.015,0.208 1.6,0.208 1.095,0 1.957,-0.277 2.585,-0.832 C 52.166,5.449 52.44,5.036 52.608,4.547 52.776,4.058 52.86,3.586 52.86,3.134 52.86,2.666 52.827,2.147 52.761,1.577 52.696,1.008 52.604,0.481 52.487,0 H 43.836 43.394 39.962 39.52 36.088 35.645 32.214 31.771 28.339 27.897 24.465 24.022 20.591 20.148 16.717 16.274 12.843 12.4 8.969 8.526 5.084 4.652 3.068 V 10.365 H 0 V 9.269 H -0.438 C -1.622,9.269 -2.677,9.112 -3.604,8.798 -4.532,8.483 -5.317,8.053 -5.96,7.505 -6.603,6.957 -7.092,6.308 -7.428,5.555 -7.765,4.803 -7.933,3.98 -7.933,3.09 c 0,-1.037 0.187,-1.944 0.559,-2.718 0.373,-0.774 0.892,-1.417 1.556,-1.928 0.665,-0.511 1.454,-0.891 2.367,-1.139 0.913,-0.249 1.917,-0.373 3.013,-0.373 h 5.09 0.432 3.442 0.443 3.431 0.443 3.431 0.443 3.431 0.443 3.431 0.443 3.432 0.442 3.432 0.443 3.431 0.443 3.432 0.442 3.432 0.442 11.018 c 0.103,0.321 0.216,0.701 0.34,1.139 0.124,0.439 0.237,0.921 0.34,1.447 0.102,0.526 0.189,1.074 0.262,1.643 0.074,0.569 0.11,1.147 0.11,1.732 0,1.11 -0.183,2.092 -0.548,2.947 -0.365,0.854 -0.84,1.574 -1.424,2.158" /></g><g
           transform="translate(91.5676,92.5035)"
           id="g132"><path
             id="path134"
             style="fill:#ed942a;fill-opacity:1;fill-rule:nonzero;stroke:none"
             d="M 0,0 C 0.467,0 0.869,0.135 1.205,0.405 1.541,0.676 1.709,1.066 1.709,1.578 1.709,2.045 1.548,2.421 1.227,2.706 0.906,2.991 0.497,3.133 0,3.133 -0.482,3.133 -0.888,2.991 -1.216,2.706 -1.545,2.421 -1.709,2.045 -1.709,1.578 -1.709,1.066 -1.542,0.676 -1.206,0.405 -0.87,0.135 -0.468,0 0,0" /></g><path
           id="path136"
           style="fill:#ed942a;fill-opacity:1;fill-rule:nonzero;stroke:none"
           d="m 236.522,77.449 h 3.067 v 17.772 h -3.067 z" /><g
           transform="translate(258.4548,89.7862)"
           id="g138"><path
             id="path140"
             style="fill:#ed942a;fill-opacity:1;fill-rule:nonzero;stroke:none"
             d="m 0,0 v -11.943 c 0,-0.76 -0.121,-1.307 -0.361,-1.643 -0.242,-0.336 -0.669,-0.504 -1.283,-0.504 -0.233,0 -0.46,0.014 -0.679,0.044 -0.219,0.029 -0.475,0.08 -0.767,0.153 l 0.219,-3.067 c 0.19,-0.059 0.424,-0.107 0.701,-0.143 0.278,-0.037 0.563,-0.055 0.856,-0.055 0.788,0 1.46,0.11 2.015,0.328 0.555,0.22 1.008,0.559 1.359,1.02 0.35,0.46 0.606,1.044 0.767,1.753 0.16,0.708 0.24,1.559 0.24,2.553 V 0 Z" /></g><path
           id="path142"
           style="fill:#ed942a;fill-opacity:1;fill-rule:nonzero;stroke:none"
           d="m 209.819,77.449 h 3.067 v 17.772 h -3.067 z" /><g
           transform="translate(231.2995,88.1431)"
           id="g144"><path
             id="path146"
             style="fill:#ed942a;fill-opacity:1;fill-rule:nonzero;stroke:none"
             d="m 0,0 c -0.555,0.584 -1.205,1.004 -1.95,1.26 -0.745,0.255 -1.614,0.383 -2.608,0.383 h -1.008 v -3.068 h 1.315 c 0.395,0 0.756,-0.077 1.085,-0.23 0.328,-0.154 0.588,-0.354 0.777,-0.603 0.205,-0.248 0.355,-0.536 0.45,-0.865 0.094,-0.329 0.142,-0.712 0.142,-1.15 v -3.353 h -7.647 v -3.068 H 1.271 v 6.289 c 0,0.906 -0.095,1.742 -0.285,2.509 C 0.796,-1.129 0.468,-0.497 0,0" /></g><g
           transform="translate(194.278,80.5494)"
           id="g148"><path
             id="path150"
             style="fill:#ed942a;fill-opacity:1;fill-rule:nonzero;stroke:none"
             d="m 0,0 c -0.183,-0.431 -0.438,-0.803 -0.767,-1.117 -0.329,-0.315 -0.712,-0.559 -1.15,-0.735 -0.438,-0.174 -0.906,-0.262 -1.402,-0.262 -0.497,0 -0.957,0.091 -1.381,0.274 -0.424,0.182 -0.793,0.431 -1.107,0.744 -0.314,0.315 -0.558,0.688 -0.734,1.118 -0.175,0.431 -0.263,0.895 -0.263,1.392 0,0.496 0.088,0.964 0.263,1.402 0.176,0.439 0.416,0.819 0.723,1.14 0.307,0.321 0.672,0.577 1.095,0.767 0.424,0.189 0.892,0.285 1.404,0.285 0.525,0 1.007,-0.092 1.446,-0.275 0.437,-0.182 0.817,-0.434 1.139,-0.755 0.321,-0.322 0.57,-0.702 0.745,-1.14 C 0.187,2.4 0.274,1.925 0.274,1.414 0.274,0.902 0.183,0.432 0,0 M 7.332,-0.032 H 5.643 5.185 3.188 C 3.232,0.187 3.269,0.413 3.298,0.646 3.327,0.881 3.342,1.121 3.342,1.37 3.342,2.319 3.17,3.203 2.827,4.021 2.483,4.84 2.009,5.548 1.402,6.147 0.796,6.746 0.088,7.217 -0.723,7.561 -1.534,7.903 -2.399,8.075 -3.319,8.075 -4.226,8.075 -5.076,7.9 -5.873,7.55 -6.669,7.199 -7.362,6.721 -7.954,6.114 -8.546,5.508 -9.014,4.8 -9.356,3.988 -9.7,3.178 -9.872,2.305 -9.872,1.37 c 0,-0.249 0.012,-0.489 0.033,-0.724 0.022,-0.233 0.063,-0.459 0.12,-0.678 h -1.634 c -1.402,0 -2.424,0.343 -3.067,1.029 0.044,0.293 0.08,0.596 0.109,0.91 0.03,0.314 0.044,0.647 0.044,0.997 v 7.867 h -3.046 V 2.51 c 0,-0.848 -0.219,-1.52 -0.657,-2.017 -0.439,-0.496 -1.096,-0.745 -1.972,-0.745 -0.833,0 -1.501,0.252 -2.005,0.756 -0.505,0.505 -0.757,1.282 -0.757,2.334 v 5.303 h -3.067 V 2.707 c 0,-0.541 -0.088,-0.986 -0.263,-1.337 -0.175,-0.35 -0.406,-0.632 -0.691,-0.844 -0.284,-0.212 -0.599,-0.358 -0.942,-0.438 -0.343,-0.08 -0.675,-0.12 -0.997,-0.12 h -2.235 v 8.173 h -3.068 v -8.173 h -4.351 -0.426 -2.379 v 14.703 h -3.068 V -3.101 h 5.447 0.426 9.654 c 0.833,0 1.629,0.168 2.389,0.504 0.759,0.336 1.417,0.797 1.972,1.381 0.248,-0.409 0.537,-0.749 0.866,-1.018 0.328,-0.271 0.682,-0.487 1.062,-0.647 0.38,-0.161 0.774,-0.274 1.184,-0.34 0.408,-0.065 0.825,-0.098 1.249,-0.098 2.191,0 3.747,0.678 4.667,2.038 0.131,-0.22 0.296,-0.439 0.493,-0.657 0.198,-0.22 0.449,-0.417 0.756,-0.592 0.307,-0.176 0.679,-0.315 1.118,-0.417 0.309,-0.073 0.674,-0.11 1.064,-0.131 v -0.023 h 3.747 c 0.614,-0.642 1.329,-1.15 2.148,-1.522 0.818,-0.373 1.694,-0.559 2.63,-0.559 0.949,0 1.843,0.183 2.683,0.548 0.841,0.364 1.568,0.876 2.181,1.533 h 3.64 0.458 4.757 v 14.705 h 1.424 v 3.067 H 7.332 Z" /></g></g></g></g></svg>